<?xml version="1.0" encoding="utf-8"?>
<!-- Generator: Adobe Illustrator 24.3.0, SVG Export Plug-In . SVG Version: 6.00 Build 0)  -->
<svg version="1.1" id="Layer_1" xmlns="http://www.w3.org/2000/svg" xmlns:xlink="http://www.w3.org/1999/xlink" x="0px" y="0px"
	 viewBox="0 0 2041.33 591.06" style="enable-background:new 0 0 2041.33 591.06;" xml:space="preserve">
<style type="text/css">
	.st0{fill:#FF4B5C;}
	.st1{fill:#056674;}
	.st2{fill:#32325d;}
</style>
<g>
	<g>
		<path class="st0" d="M211.35,371.26c-6.3,2.01-12.96,3.85-18.72,5.43c-5.99,1.66-12.19,3.21-18.98,4.72
			c-22.91,5.23-47.16,8.9-73.97,11.22h-2.58c-26.81,0-51.09-10.87-68.67-28.44S0,322.34,0,295.53c0-53.64,43.49-97.11,97.11-97.11
			H169c16.27,0,29.45-13.19,29.45-29.45V97.11c0-26.83,10.87-51.09,28.44-68.67C244.3,11.03,268.28,0.2,294.8,0
			c53.81-0.4,97.84,45.01,97.84,98.82v70.14c0,16.27,13.19,29.45,29.45,29.45h10.06c-3.14,4.69-6.27,9.26-9.41,13.72
			c-32.01,45.2-68.49,81.98-108.46,109.35c-9.92,6.91-20.51,13.39-32.45,19.87c-9.87,5.51-21.07,10.94-34.28,16.55
			C237.22,362.36,225.71,366.59,211.35,371.26z"/>
		<path class="st1" d="M591.08,294.88c0.35,53.77-45.06,97.75-98.82,97.75h-70.17c-16.27,0-29.45,13.19-29.45,29.45v71.86
			c0,26.83-10.87,51.09-28.44,68.67c-17.57,17.57-41.83,28.44-68.67,28.44c-53.62,0-97.08-43.46-97.08-97.11v-46.91
			c2.88-0.36,5.71-0.74,8.52-1.15c6.71-0.97,13.98-2.3,22.85-4.16c14.31-2.93,29.05-7.07,45.07-12.58
			c13.31-4.54,27.5-10.56,43.46-18.47c13.26-6.73,26.88-14.79,40.66-24c12.17-8.34,24.28-17.86,37.11-29.18
			c12.04-10.84,23.08-22.11,32.85-33.47c10.46-12.12,20-24.56,28.16-36.78c9.26-13.37,17.14-27.47,23.75-39.69
			c8.19-15.76,15.46-32.06,21.76-48.77c23.37,2.07,44.33,12.4,59.99,28.06C580.07,244.3,590.91,268.33,591.08,294.88z"/>
		<path class="st1" d="M11.26,408.11c28.7,1.52,56.75,1.02,84.41-1.08c27.62-2.17,54.76-5.93,81.1-11.95
			c6.59-1.47,13.13-3.08,19.6-4.87c6.48-1.77,12.92-3.57,19.28-5.61c12.7-4.13,25.23-8.56,37.4-13.77
			c12.17-5.19,24.12-10.79,35.62-17.21c11.56-6.28,22.81-13.09,33.61-20.59c43.39-29.72,80.5-68.45,111.89-112.78
			c15.69-22.19,30.01-45.72,43.52-70.11c3.51-6.04,6.57-12.31,9.98-18.47l9.72-18.77c3.11-6.34,6.28-12.69,9.52-19.06
			c3.11-6.41,6.2-12.85,9.58-19.26c-0.55,7.18-1.37,14.33-2.19,21.5c-1.08,7.1-2.15,14.24-3.43,21.34
			c-1.39,7.07-2.86,14.15-4.47,21.21c-0.83,3.52-1.78,7.01-2.67,10.52c-0.9,3.51-1.79,7.03-2.84,10.5
			c-8.04,27.89-18.84,55.23-32.44,81.44c-7,12.99-14.33,25.92-22.83,38.16c-8.27,12.39-17.42,24.25-27.25,35.61
			c-9.79,11.38-20.41,22.11-31.62,32.23c-11.32,9.98-23.16,19.45-35.65,28.02c-12.58,8.42-25.6,16.21-39.08,23.07
			c-13.55,6.71-27.4,12.84-41.66,17.71c-14.24,4.9-28.7,9.08-43.36,12.09c-7.32,1.53-14.65,2.94-22.03,4.01
			c-7.38,1.07-14.77,1.92-22.16,2.6c-29.58,2.58-59.19,1.6-88.08-2.64c-14.44-2.2-28.72-5.11-42.7-9.01
			C38.05,419.05,24.27,414.43,11.26,408.11z"/>
	</g>
	<g>
		<polygon class="st2" points="923.16,196.74 923.16,397.3 891.48,397.3 891.48,273.56 834.99,347.69 824.22,347.69 767.43,273.26 
			767.43,397.3 735.75,397.3 735.75,196.74 746.81,196.74 829.61,307.03 912.4,196.74 		"/>
		<polygon class="st2" points="1112.06,368.91 1112.06,397.3 978.75,397.3 978.75,200.03 1108.48,200.03 1108.48,228.43 
			1010.44,228.43 1010.44,278.94 1084.26,278.94 1084.26,306.44 1010.44,306.44 1010.44,368.91 		"/>
		<path class="st2" d="M1216.67,200.03h-61.87V397.3h61.87c64.26,0,107.3-41.54,107.3-98.93
			C1323.97,240.08,1281.23,200.03,1216.67,200.03z M1216.37,368.91h-29.89V228.72h29.89c46.03,0,75.02,27.8,75.02,69.65
			C1291.39,339.61,1262.1,368.91,1216.37,368.91z"/>
		<path class="st2" d="M1459.07,196.74c-56.19-0.9-104.32,45.44-103.42,101.93c-1.19,56.49,46.93,102.82,103.42,101.92
			c55.89,0.9,104.91-45.43,103.72-101.92C1563.98,242.18,1514.96,195.84,1459.07,196.74z M1459.37,371.6
			c-40.95,0-70.84-31.09-70.84-73.23c0-41.55,29.89-72.63,70.84-72.63c40.35,0,70.84,31.38,70.84,72.63
			C1530.21,340.51,1499.72,371.6,1459.37,371.6z"/>
		<polygon class="st2" points="1879.32,200.03 1802.51,400.59 1792.04,400.59 1733.16,260.71 1674.28,400.59 1663.52,400.59 
			1586.7,200.03 1621.67,200.03 1670.99,333.34 1727.48,196.74 1738.54,196.74 1795.33,333.34 1844.65,200.03 		"/>
		<path class="st2" d="M2041.33,343.5c0,34.37-28.1,57.09-66.06,57.09c-32.28,0-59.18-16.14-74.42-42.74l22.41-17.04
			c13.15,19.13,28.99,31.38,51.71,31.38c20.33,0,34.08-10.76,34.08-27.49c0-14.05-8.37-20.03-29-29.59l-21.82-10.17
			c-28.69-13.15-46.03-28.39-46.03-54.7c0-32.28,28.1-53.5,62.18-53.5c27.79,0,51.4,14.05,63.66,35.27l-22.12,17.04
			c-10.46-15.54-24.81-23.91-41.54-23.91c-16.74,0-29.9,8.37-29.9,23.91c1.2,15.54,8.07,18.23,27.5,28.1l22.12,10.16
			C2026.08,301.95,2041.33,317.5,2041.33,343.5z"/>
	</g>
</g>
</svg>
